<?xml version="1.0" encoding="UTF-8"?><svg id="Warstwa_1" xmlns="http://www.w3.org/2000/svg" viewBox="0 0 24.56 10.52"><defs><style>.cls-1{fill:#202945;}</style></defs><path class="cls-1" d="M24.55,5.33s.01-.04,.01-.06h0v-.02s-.02-.07-.02-.11v-.03s-.01-.06-.02-.09c-.03-.07-.07-.14-.13-.19,0,0,0-.01-.01-.02h-.01L19.62,.18c-.26-.25-.67-.24-.92,.01-.25,.26-.25,.67,.01,.92l3.59,3.49H.65c-.36,0-.65,.29-.65,.65s.29,.65,.65,.65H22.31l-3.59,3.49c-.26,.25-.26,.66-.01,.92,.13,.13,.3,.2,.47,.2s.33-.06,.45-.18l4.74-4.61h0c.06-.07,.11-.14,.15-.23,.01-.03,0-.05,.02-.08,0-.03,.01-.06,.02-.09Z"/></svg>