<svg width="154" height="29" viewBox="0 0 154 29" fill="none" xmlns="http://www.w3.org/2000/svg">
<g clip-path="url(#clip0_1234_4482)">
<path d="M59.1862 21.6058L58.0587 19.042H52.5112L51.4007 21.6058H48.7422L54.6594 8.96484H55.909L61.8448 21.6058H59.1862ZM55.2765 12.7302L53.4097 16.9082H57.1602L55.2765 12.7302Z" fill="white"/>
<path d="M71.3183 15.455C72.0746 16.0109 72.4458 16.8187 72.4458 17.8928C72.4458 19.0943 72.005 20.0455 71.125 20.7447C70.262 21.4266 69.099 21.7668 67.6375 21.7668C66.5456 21.7668 65.647 21.6943 64.9604 21.5337C64.2737 21.3731 63.4463 21.0502 62.4766 20.5668L63.3921 18.5762C64.167 18.9526 64.8722 19.2235 65.5048 19.3479C66.1559 19.4739 66.8967 19.5447 67.7241 19.5447C69.0804 19.5447 69.8908 19.0424 69.8908 18.1101C69.8908 17.3038 69.1686 16.8912 67.2493 16.4424C66.0692 16.1731 65.3826 15.9762 64.5196 15.5636C63.304 14.9888 62.6884 14.0928 62.6359 12.6219C62.6359 11.4928 63.0411 10.5778 63.8685 9.87858C64.6959 9.18094 65.8233 8.82031 67.2137 8.82031C68.8515 8.82031 70.4368 9.16204 71.9679 9.84236L70.9471 11.8865C69.6264 11.3305 68.3767 11.0439 67.1611 11.0439C65.9455 11.0439 65.1892 11.5998 65.1892 12.4061C65.1892 13.2676 65.9471 13.6613 67.9375 14.1101C69.4346 14.4518 70.5605 14.8991 71.3183 15.455Z" fill="white"/>
<path d="M79.8323 15.2058L85.4139 21.6058H82.1042L78.1945 17.1963L76.7685 18.7381V21.6074H74.3203V8.96484H76.7685V15.0436L82.2109 8.96484H85.2577L79.8338 15.2042L79.8323 15.2058Z" fill="white"/>
<path d="M96.0559 19.7239C94.9115 20.979 93.5365 21.6058 91.9358 21.6058H86.6172V8.96484H91.5306C93.2566 8.96484 94.7367 9.59161 95.9508 10.8294C97.1664 12.0672 97.7819 13.5538 97.7819 15.294C97.7819 17.0341 97.2004 18.4672 96.0559 19.7239ZM89.0639 19.2578H91.724C92.6921 19.2578 93.5381 18.8625 94.2418 18.0751C94.947 17.2861 95.2981 16.3538 95.2981 15.2956C95.2981 14.2373 94.9285 13.2515 94.1892 12.4814C93.4499 11.7097 92.5699 11.316 91.5291 11.316H89.0639V19.2593V19.2578Z" fill="white"/>
<path d="M110.399 10.7391C111.684 11.9942 112.335 13.5202 112.335 15.2934C112.335 17.0666 111.684 18.5926 110.399 19.8666C109.114 21.1217 107.564 21.7485 105.733 21.7485C103.902 21.7485 102.352 21.1217 101.065 19.8666C99.78 18.5926 99.1289 17.0698 99.1289 15.2934C99.1289 13.517 99.7816 11.9942 101.065 10.7391C102.352 9.46662 103.919 8.83984 105.733 8.83984C107.547 8.83984 109.114 9.46819 110.399 10.7391ZM108.568 12.4446C107.776 11.6383 106.842 11.243 105.733 11.243C104.624 11.243 103.69 11.6383 102.898 12.4446C102.106 13.2335 101.718 14.1832 101.718 15.295C101.718 16.4068 102.106 17.3753 102.881 18.1643C103.673 18.9532 104.624 19.3469 105.734 19.3469C106.845 19.3469 107.794 18.9532 108.588 18.1643C109.38 17.3753 109.766 16.4257 109.766 15.295C109.766 14.1643 109.361 13.2335 108.569 12.4446H108.568Z" fill="white"/>
<path d="M125.266 8.96484H126.498V21.6058H123.964V14.6137L120.125 20.1003L116.269 14.6137V21.6058H113.75V8.96484H114.983L120.125 16.2089L125.267 8.96484H125.266Z" fill="white"/>
<path d="M131.065 21.3351C130.519 21.9099 129.639 21.9099 129.093 21.3351C128.547 20.7603 128.547 19.8296 129.093 19.2737C129.639 18.7004 130.519 18.7004 131.065 19.2737C131.628 19.8296 131.628 20.7619 131.065 21.3351Z" fill="white"/>
<path d="M133.609 8.96484H138.716C140.407 8.96484 141.641 9.39477 142.414 10.2546C143.189 11.1145 143.577 12.2089 143.577 13.5192C143.577 16.8373 141.551 18.3601 138.223 18.3601H136.127V21.6042H133.609V8.96484ZM136.127 16.2263H137.977C139.932 16.2263 140.935 15.2751 140.935 13.716C140.935 12.2641 140.142 11.1885 138.311 11.1885H136.127V16.2278V16.2263Z" fill="white"/>
<path d="M147.604 19.4546H153.997V21.6058H145.086V8.96484H147.604V19.4546Z" fill="white"/>
<path d="M3.3375 28.9987C3.30503 28.9955 3.27409 28.9924 3.24162 28.9892C3.28337 28.9892 3.32513 28.9892 3.36844 28.9892C5.89554 28.9892 8.27262 28.3325 10.3466 27.1766C12.8659 25.7735 14.9368 23.6365 16.2792 21.0491C16.2792 21.0491 16.2792 21.0459 16.2808 21.0459C16.3349 20.9451 16.3875 20.8412 16.437 20.7357C16.4385 20.7325 16.4401 20.7309 16.4416 20.7278C16.785 19.9876 16.9767 19.1609 16.9767 18.2868C16.9767 16.3309 16.0132 14.6065 14.5424 13.5766C13.9965 13.1939 13.3809 12.9057 12.7206 12.7388H12.6804L12.6865 12.7309C12.2612 12.6254 11.8174 12.5703 11.3596 12.5703C10.9018 12.5703 10.4347 12.6286 10.0001 12.7388C8.39171 13.1451 7.05856 14.2569 6.33476 15.7341L6.27599 15.8554L3.63599 21.3829L3.1117 22.4805L0.570685 27.8034L0.267557 28.4396L0.174763 28.6317L0 28.9987H3.3375Z" fill="white"/>
<path d="M6.60702 29.0005H22.8955V23.1768L25.8634 20.1548L27.2043 18.7894L31.513 23.1768C34.0695 20.369 35.7785 16.7469 36.2146 12.7422H22.894C22.8414 13.2288 22.7702 13.7091 22.6805 14.1831C22.5414 14.9249 22.3573 15.6493 22.1315 16.3579C20.4782 21.5595 16.6025 25.7532 11.6473 27.7705C10.0636 28.4146 8.37011 28.8382 6.60547 29.0005H6.60702Z" fill="white"/>
<path d="M9.3114 3.29997L10.2656 4.27162C9.57586 4.97241 9.15055 5.93776 9.15055 7.00548C9.15055 7.34249 9.19231 7.66847 9.27273 7.98028C9.35315 8.2921 9.46915 8.58816 9.61916 8.86532C10.2656 10.0606 11.5153 10.8716 12.9474 10.8716C13.9588 10.8716 14.8791 10.4685 15.5611 9.80863C15.5626 9.80863 15.5642 9.80548 15.5673 9.80391C15.5673 9.80391 15.6539 9.71572 15.6322 9.73776L16.9731 11.1031L17.5268 10.5393L18.314 9.73934C18.2923 9.71729 18.314 9.73934 18.314 9.73934L18.3774 9.80391C19.0594 10.4653 19.9828 10.8732 20.9958 10.8732C21.6871 10.8732 22.3351 10.6842 22.8934 10.3551C22.9274 10.3346 22.963 10.3141 22.997 10.2905C24.075 9.60863 24.7926 8.39131 24.7926 7.00706C24.7926 5.94091 24.3673 4.97398 23.6791 4.27477L24.6317 3.30469L25.9742 1.93776L27.3151 0.570835C26.9717 0.219654 26.4969 0.00390625 25.9726 0.00390625C25.8025 0.00390625 25.637 0.0259535 25.4808 0.070048C25.1854 0.150363 24.9163 0.301544 24.6967 0.506268L24.5683 0.636977L23.2909 1.93934H10.6523L9.37326 0.636977C9.37326 0.636977 9.36243 0.625953 9.35625 0.621229L9.30057 0.562961L9.25881 0.522016C9.25881 0.522016 9.24799 0.510993 9.24335 0.506268C9.02373 0.304694 8.75927 0.153513 8.46697 0.0716228C8.30767 0.0275283 8.13909 0.00390625 7.96742 0.00390625C7.93804 0.00390625 7.9102 0.00390625 7.88236 0.00705586C7.3921 0.0291031 6.94978 0.240127 6.625 0.570835L7.96742 1.93934L9.30985 3.30627L9.3114 3.29997ZM19.0981 7.00548C19.0981 6.48265 19.3023 6.00706 19.6348 5.65902C19.6487 5.64485 19.6611 5.63068 19.6765 5.61808C20.0183 5.28107 20.4838 5.07162 20.9973 5.07162C21.5108 5.07162 21.95 5.26847 22.2887 5.58816C22.3057 5.60391 22.3227 5.62123 22.3413 5.63855C22.6738 5.97713 22.8826 6.4417 22.8949 6.95509C22.8949 6.97084 22.8949 6.98816 22.8949 7.00548C22.8949 7.0228 22.8949 7.03855 22.8949 7.05587C22.8888 7.28895 22.8439 7.51099 22.7635 7.71572C22.4867 8.43225 21.8 8.93934 20.9973 8.93934C20.473 8.93934 19.9982 8.72359 19.6549 8.37398C19.31 8.02438 19.0981 7.54091 19.0981 7.00706V7.00548ZM11.0482 7.00548C11.0482 6.47162 11.2616 5.98816 11.605 5.63855C11.9483 5.28895 12.4216 5.0732 12.9458 5.0732C13.4701 5.0732 13.9155 5.27635 14.2558 5.60706C14.279 5.62753 14.3006 5.65115 14.3192 5.6732C14.6455 6.01965 14.845 6.49052 14.845 7.00706C14.845 7.52359 14.6332 8.02438 14.2898 8.37398C13.9465 8.72359 13.4717 8.94091 12.9458 8.94091C11.8973 8.94091 11.0467 8.07635 11.0467 7.00706L11.0482 7.00548Z" fill="white"/>
<path d="M22.8945 29.0001H31.512V23.1765L27.2033 18.7891L22.8945 23.1765V29.0001Z" fill="#FF671D"/>
</g>
<defs>
<clipPath id="clip0_1234_4482">
<rect width="154" height="29" fill="white"/>
</clipPath>
</defs>
</svg>
