<svg width="154" height="29" viewBox="0 0 154 29" fill="none" xmlns="http://www.w3.org/2000/svg">
<g clip-path="url(#clip0_1060_418)">
<path d="M59.1901 21.6097L58.0627 19.0459H52.5151L51.4047 21.6097H48.7461L54.6633 8.96875H55.9129L61.8487 21.6097H59.1901ZM55.2804 12.7341L53.4136 16.9121H57.1641L55.2804 12.7341Z" fill="#202945"/>
<path d="M71.3222 15.455C72.0785 16.0109 72.4497 16.8187 72.4497 17.8928C72.4497 19.0943 72.0089 20.0455 71.1289 20.7447C70.2659 21.4266 69.1029 21.7668 67.6414 21.7668C66.5495 21.7668 65.6509 21.6943 64.9643 21.5337C64.2776 21.3731 63.4502 21.0502 62.4805 20.5668L63.396 18.5762C64.1709 18.9526 64.8761 19.2235 65.5087 19.3479C66.1598 19.4739 66.9006 19.5447 67.728 19.5447C69.0843 19.5447 69.8947 19.0424 69.8947 18.1101C69.8947 17.3038 69.1725 16.8912 67.2532 16.4424C66.0732 16.1731 65.3865 15.9762 64.5235 15.5636C63.3079 14.9888 62.6923 14.0928 62.6398 12.6219C62.6398 11.4928 63.045 10.5778 63.8724 9.87858C64.6998 9.18094 65.8272 8.82031 67.2176 8.82031C68.8554 8.82031 70.4407 9.16204 71.9718 9.84236L70.951 11.8865C69.6303 11.3305 68.3806 11.0439 67.165 11.0439C65.9494 11.0439 65.1932 11.5998 65.1932 12.4061C65.1932 13.2676 65.951 13.6613 67.9414 14.1101C69.4385 14.4518 70.5644 14.8991 71.3222 15.455Z" fill="#202945"/>
<path d="M79.8323 15.2097L85.4139 21.6097H82.1042L78.1945 17.2002L76.7685 18.742V21.6113H74.3203V8.96875H76.7685V15.0475L82.2109 8.96875H85.2577L79.8338 15.2081L79.8323 15.2097Z" fill="#202945"/>
<path d="M96.0637 19.7278C94.9193 20.9829 93.5444 21.6097 91.9437 21.6097H86.625V8.96875H91.5385C93.2644 8.96875 94.7445 9.59552 95.9586 10.8333C97.1742 12.0711 97.7897 13.5577 97.7897 15.2979C97.7897 17.038 97.2082 18.4711 96.0637 19.7278ZM89.0717 19.2617H91.7318C92.6999 19.2617 93.5459 18.8664 94.2496 18.079C94.9548 17.29 95.3059 16.3577 95.3059 15.2995C95.3059 14.2412 94.9363 13.2554 94.197 12.4853C93.4578 11.7136 92.5778 11.3199 91.5369 11.3199H89.0717V19.2632V19.2617Z" fill="#202945"/>
<path d="M110.403 10.743C111.688 11.9981 112.339 13.5241 112.339 15.2973C112.339 17.0705 111.688 18.5965 110.403 19.8705C109.117 21.1256 107.568 21.7524 105.737 21.7524C103.906 21.7524 102.356 21.1256 101.069 19.8705C99.7839 18.5965 99.1328 17.0737 99.1328 15.2973C99.1328 13.5209 99.7855 11.9981 101.069 10.743C102.356 9.47052 103.923 8.84375 105.737 8.84375C107.551 8.84375 109.117 9.4721 110.403 10.743ZM108.572 12.4485C107.78 11.6422 106.846 11.2469 105.737 11.2469C104.628 11.2469 103.694 11.6422 102.902 12.4485C102.11 13.2375 101.722 14.1871 101.722 15.2989C101.722 16.4107 102.11 17.3792 102.885 18.1682C103.677 18.9571 104.628 19.3508 105.738 19.3508C106.849 19.3508 107.798 18.9571 108.592 18.1682C109.384 17.3792 109.77 16.4296 109.77 15.2989C109.77 14.1682 109.365 13.2375 108.573 12.4485H108.572Z" fill="#202945"/>
<path d="M125.27 8.96875H126.502V21.6097H123.967V14.6176L120.129 20.1042L116.273 14.6176V21.6097H113.754V8.96875H114.987L120.129 16.2128L125.271 8.96875H125.27Z" fill="#202945"/>
<path d="M131.069 21.3351C130.523 21.9099 129.643 21.9099 129.097 21.3351C128.551 20.7603 128.551 19.8296 129.097 19.2737C129.643 18.7004 130.523 18.7004 131.069 19.2737C131.632 19.8296 131.632 20.7619 131.069 21.3351Z" fill="#202945"/>
<path d="M133.617 8.96875H138.724C140.414 8.96875 141.649 9.39867 142.422 10.2585C143.197 11.1184 143.585 12.2128 143.585 13.5231C143.585 16.8412 141.559 18.364 138.231 18.364H136.135V21.6081H133.617V8.96875ZM136.135 16.2302H137.985C139.94 16.2302 140.943 15.279 140.943 13.7199C140.943 12.268 140.15 11.1924 138.319 11.1924H136.135V16.2317V16.2302Z" fill="#202945"/>
<path d="M147.608 19.4585H154.001V21.6097H145.09V8.96875H147.608V19.4585Z" fill="#202945"/>
<path d="M3.3375 28.9908C3.30503 28.9877 3.27409 28.9845 3.24162 28.9814C3.28337 28.9814 3.32513 28.9814 3.36844 28.9814C5.89554 28.9814 8.27262 28.3247 10.3466 27.1688C12.8659 25.7657 14.9368 23.6286 16.2792 21.0412C16.2792 21.0412 16.2792 21.0381 16.2808 21.0381C16.3349 20.9373 16.3875 20.8334 16.437 20.7279C16.4385 20.7247 16.4401 20.7231 16.4416 20.72C16.785 19.9798 16.9767 19.1531 16.9767 18.279C16.9767 16.3231 16.0132 14.5987 14.5424 13.5688C13.9965 13.1861 13.3809 12.8979 12.7206 12.731H12.6804L12.6865 12.7231C12.2612 12.6176 11.8174 12.5625 11.3596 12.5625C10.9018 12.5625 10.4347 12.6208 10.0001 12.731C8.39171 13.1373 7.05856 14.2491 6.33476 15.7263L6.27599 15.8475L3.63599 21.3751L3.1117 22.4727L0.570685 27.7956L0.267557 28.4318L0.174763 28.6239L0 28.9908H3.3375Z" fill="#202945"/>
<path d="M6.60702 29.0005H22.8955V23.1768L25.8634 20.1548L27.2043 18.7894L31.513 23.1768C34.0695 20.369 35.7785 16.7469 36.2146 12.7422H22.894C22.8414 13.2288 22.7702 13.7091 22.6805 14.1831C22.5414 14.9249 22.3573 15.6493 22.1315 16.3579C20.4782 21.5595 16.6025 25.7532 11.6473 27.7705C10.0636 28.4146 8.37011 28.8382 6.60547 29.0005H6.60702Z" fill="#202945"/>
<path d="M9.3114 3.29606L10.2656 4.26772C9.57586 4.9685 9.15055 5.93386 9.15055 7.00157C9.15055 7.33858 9.19231 7.66457 9.27273 7.97638C9.35315 8.28819 9.46915 8.58425 9.61916 8.86142C10.2656 10.0567 11.5153 10.8677 12.9474 10.8677C13.9588 10.8677 14.8791 10.4646 15.5611 9.80472C15.5626 9.80472 15.5642 9.80157 15.5673 9.8C15.5673 9.8 15.6539 9.71181 15.6322 9.73386L16.9731 11.0992L17.5268 10.5354L18.314 9.73543C18.2923 9.71339 18.314 9.73543 18.314 9.73543L18.3774 9.8C19.0594 10.4614 19.9828 10.8693 20.9958 10.8693C21.6871 10.8693 22.3351 10.6803 22.8934 10.3512C22.9274 10.3307 22.963 10.3102 22.997 10.2866C24.075 9.60472 24.7926 8.3874 24.7926 7.00315C24.7926 5.93701 24.3673 4.97008 23.6791 4.27087L24.6317 3.30079L25.9742 1.93386L27.3151 0.566929C26.9717 0.215748 26.4969 0 25.9726 0C25.8025 0 25.637 0.0220472 25.4808 0.0661417C25.1854 0.146457 24.9163 0.297638 24.6967 0.502362L24.5683 0.633071L23.2909 1.93543H10.6523L9.37326 0.633071C9.37326 0.633071 9.36243 0.622047 9.35625 0.617323L9.30057 0.559055L9.25881 0.51811C9.25881 0.51811 9.24799 0.507087 9.24335 0.502362C9.02373 0.300787 8.75927 0.149606 8.46697 0.0677165C8.30767 0.023622 8.13909 0 7.96742 0C7.93804 0 7.9102 0 7.88236 0.00314961C7.3921 0.0251969 6.94978 0.23622 6.625 0.566929L7.96742 1.93543L9.30985 3.30236L9.3114 3.29606ZM19.0981 7.00157C19.0981 6.47874 19.3023 6.00315 19.6348 5.65512C19.6487 5.64094 19.6611 5.62677 19.6765 5.61417C20.0183 5.27716 20.4838 5.06772 20.9973 5.06772C21.5108 5.06772 21.95 5.26457 22.2887 5.58425C22.3057 5.6 22.3227 5.61732 22.3413 5.63465C22.6738 5.97323 22.8826 6.4378 22.8949 6.95118C22.8949 6.96693 22.8949 6.98425 22.8949 7.00157C22.8949 7.0189 22.8949 7.03465 22.8949 7.05197C22.8888 7.28504 22.8439 7.50709 22.7635 7.71181C22.4867 8.42835 21.8 8.93543 20.9973 8.93543C20.473 8.93543 19.9982 8.71968 19.6549 8.37008C19.31 8.02047 19.0981 7.53701 19.0981 7.00315V7.00157ZM11.0482 7.00157C11.0482 6.46772 11.2616 5.98425 11.605 5.63465C11.9483 5.28504 12.4216 5.06929 12.9458 5.06929C13.4701 5.06929 13.9155 5.27244 14.2558 5.60315C14.279 5.62362 14.3006 5.64724 14.3192 5.66929C14.6455 6.01575 14.845 6.48661 14.845 7.00315C14.845 7.51969 14.6332 8.02047 14.2898 8.37008C13.9465 8.71968 13.4717 8.93701 12.9458 8.93701C11.8973 8.93701 11.0467 8.07244 11.0467 7.00315L11.0482 7.00157Z" fill="#202945"/>
<path d="M22.8945 28.9923H31.512V23.1687L27.2033 18.7812L22.8945 23.1687V28.9923Z" fill="#FF671D"/>
</g>
<defs>
<clipPath id="clip0_1060_418">
<rect width="154" height="29" fill="white"/>
</clipPath>
</defs>
</svg>
