<?xml version="1.0" encoding="UTF-8"?><svg id="Warstwa_1" xmlns="http://www.w3.org/2000/svg" viewBox="0 0 17.2 17.2"><defs><style>.cls-1{fill:#202945;}</style></defs><path class="cls-1" d="M16.6,17.2c-.15,0-.31-.06-.42-.18l-7.58-7.58L1.02,17.02c-.23,.23-.61,.23-.85,0-.23-.23-.23-.61,0-.85l7.58-7.58L.18,1.02c-.12-.12-.18-.27-.18-.42S.06,.29,.18,.18C.41-.06,.79-.06,1.02,.18l7.58,7.58L16.18,.18c.23-.23,.61-.23,.85,0s.23,.61,0,.85l-7.58,7.58,7.58,7.58c.12,.12,.18,.27,.18,.42s-.06,.31-.18,.42-.27,.18-.42,.18Z"/></svg>