<?xml version="1.0" encoding="UTF-8"?><svg id="Warstwa_1" xmlns="http://www.w3.org/2000/svg" viewBox="0 0 19.2 21.2"><defs><style>.cls-1{fill:#5f6579;}</style></defs><path class="cls-1" d="M18.6,4h-5.4V1.6c0-.43-.17-.83-.47-1.13-.3-.3-.7-.47-1.13-.47H7.6c-.43,0-.83,.17-1.13,.47s-.47,.7-.47,1.13v2.4H.6c-.33,0-.6,.27-.6,.6s.27,.6,.6,.6h.45l1.1,13.11c0,.77,.3,1.5,.85,2.04,.55,.55,1.27,.85,2.04,.85H14.17c.77,0,1.5-.3,2.04-.85,.55-.54,.85-1.27,.84-1.99l1.1-13.16h.45c.33,0,.6-.27,.6-.6s-.27-.6-.6-.6ZM7.2,1.6c0-.1,.04-.21,.12-.28,.07-.07,.18-.12,.28-.12h4c.11,0,.21,.04,.28,.12,.07,.07,.12,.18,.12,.28v2.4H7.2V1.6ZM15.86,18.31c0,.45-.18,.87-.49,1.19-.32,.32-.74,.49-1.19,.49H5.03c-.45,0-.87-.18-1.19-.49-.32-.32-.49-.74-.5-1.24L2.25,5.2h14.7l-1.09,13.11Z"/><path class="cls-1" d="M7.6,9c-.33,0-.6,.27-.6,.6v7c0,.33,.27,.6,.6,.6s.6-.27,.6-.6v-7c0-.33-.27-.6-.6-.6Z"/><path class="cls-1" d="M11.6,9c-.33,0-.6,.27-.6,.6v7c0,.33,.27,.6,.6,.6s.6-.27,.6-.6v-7c0-.33-.27-.6-.6-.6Z"/></svg>