<?xml version="1.0" encoding="UTF-8"?><svg id="Warstwa_1" xmlns="http://www.w3.org/2000/svg" viewBox="0 0 18.28 18.47"><defs><style>.cls-1{fill:#202945;}</style></defs><path class="cls-1" d="M5.06,18.25H.6c-.33,0-.6-.27-.6-.6v-4.46c0-.16,.06-.31,.18-.42L11.88,1.06c1.42-1.42,3.89-1.42,5.31,0,.71,.71,1.1,1.65,1.1,2.65s-.39,1.94-1.1,2.65L5.48,18.07c-.11,.11-.27,.18-.42,.18Zm-3.86-1.2h3.61L16.34,5.52c.48-.48,.75-1.12,.75-1.8s-.27-1.32-.75-1.8c-.96-.96-2.65-.96-3.61,0L1.2,13.44v3.61Z"/><path class="cls-1" d="M17.52,18.47h-6.78c-.33,0-.6-.27-.6-.6s.27-.6,.6-.6h6.78c.33,0,.6,.27,.6,.6s-.27,.6-.6,.6Z"/><path class="cls-1" d="M17.68,14.59h-4.05c-.33,0-.6-.27-.6-.6s.27-.6,.6-.6h4.05c.33,0,.6,.27,.6,.6s-.27,.6-.6,.6Z"/></svg>