<?xml version="1.0" encoding="UTF-8"?><svg id="Warstwa_1" xmlns="http://www.w3.org/2000/svg" viewBox="0 0 21.2 21.19"><defs><style>.cls-1{fill:#202945;}</style></defs><path class="cls-1" d="M19.12,4.28c-1.35-1.82-3.28-3.18-5.45-3.83-2.17-.66-4.53-.59-6.66,.17C4.88,1.39,3.02,2.85,1.77,4.73,.52,6.62-.11,8.9,.01,11.16c.12,2.26,.98,4.46,2.42,6.2,1.44,1.74,3.45,3,5.65,3.53,.82,.2,1.66,.3,2.5,.3,1.41,0,2.83-.28,4.13-.83,.3-.13,.45-.48,.32-.79s-.48-.45-.79-.32c-1.85,.78-3.94,.95-5.89,.47-1.95-.48-3.73-1.59-5.01-3.13s-2.04-3.5-2.15-5.5c-.11-2,.45-4.03,1.56-5.7,1.11-1.67,2.76-2.97,4.65-3.64,1.89-.68,3.99-.73,5.9-.15,1.92,.58,3.63,1.79,4.83,3.4,1.19,1.61,1.85,3.6,1.85,5.61v1.67c0,.58-.23,1.13-.64,1.54-.82,.82-2.26,.82-3.08,0-.41-.41-.64-.96-.64-1.54v-1.65s0-.02,0-.03c0-2.78-2.26-5.04-5.04-5.04s-5.04,2.26-5.04,5.04,2.26,5.04,5.04,5.04c1.68,0,3.17-.84,4.09-2.11,.17,.42,.42,.81,.75,1.13,1.28,1.28,3.5,1.28,4.78,0,.64-.64,.99-1.49,.99-2.39v-1.67c0-2.26-.74-4.51-2.08-6.33ZM10.6,14.44c-2.12,0-3.84-1.73-3.84-3.85s1.72-3.84,3.84-3.84,3.84,1.72,3.84,3.84h0v.03c-.02,2.11-1.73,3.82-3.84,3.82Z"/></svg>