<?xml version="1.0" encoding="UTF-8"?><svg id="Warstwa_1" xmlns="http://www.w3.org/2000/svg" xmlns:xlink="http://www.w3.org/1999/xlink" viewBox="0 0 20 20"><defs><style>.cls-1{fill:#fff;}.cls-2{fill:url(#Gradient_bez_nazwy);}</style><linearGradient id="Gradient_bez_nazwy" x1="3" y1="16.89" x2="18.31" y2="1.58" gradientTransform="translate(0 19.89) scale(1 -1)" gradientUnits="userSpaceOnUse"><stop offset="0" stop-color="#2aa4f4"/><stop offset="1" stop-color="#007ad9"/></linearGradient></defs><path class="cls-2" d="M10,0C4.48,0,0,4.48,0,10s4.48,10,10,10,10-4.48,10-10S15.52,0,10,0Z"/><path class="cls-1" d="M11.35,12.65h2.59l.41-2.63h-2.99v-1.44c0-1.09,.36-2.06,1.38-2.06h1.64v-2.29c-.29-.04-.9-.12-2.05-.12-2.41,0-3.82,1.27-3.82,4.17v1.75h-2.47v2.63h2.47v7.23c.49,.07,.99,.12,1.5,.12,.46,0,.91-.04,1.35-.1v-7.25Z"/></svg>