<?xml version="1.0" encoding="UTF-8"?><svg id="Warstwa_1" xmlns="http://www.w3.org/2000/svg" viewBox="0 0 14 17"><defs><style>.cls-1{fill:#202945;}</style></defs><path class="cls-1" d="M13.9,4.66s-.03-.05-.05-.07h0L9.2,.14s-.08-.06-.12-.08c-.01,0-.02-.02-.03-.02-.06-.02-.12-.04-.19-.04H2.36C1.73,0,1.14,.23,.7,.66c-.44,.42-.7,1.01-.7,1.62V14.72c0,.6,.25,1.19,.7,1.62,.44,.43,1.03,.66,1.66,.66H11.64c.63,0,1.21-.23,1.66-.66,.44-.42,.7-1.01,.7-1.62V4.94c0-.1-.04-.2-.1-.28ZM9.36,1.67l2.9,2.78h-2.47c-.12,0-.23-.04-.31-.12-.08-.07-.12-.17-.12-.27V1.67Zm3.25,13.95c-.26,.25-.6,.38-.97,.38H2.36c-.36,0-.71-.14-.97-.38-.25-.24-.39-.56-.39-.9V2.28c0-.34,.14-.66,.39-.9,.25-.24,.61-.38,.97-.38h6v3.06c0,.37,.16,.73,.43,.99,.27,.26,.62,.4,1,.4h3.22V14.72c0,.34-.14,.66-.39,.9Z"/></svg>