<?xml version="1.0" encoding="UTF-8"?><svg id="Warstwa_1" xmlns="http://www.w3.org/2000/svg" viewBox="0 0 21.2 21.2"><defs><style>.cls-1{fill:#202945;}</style></defs><path class="cls-1" d="M.6,3.7H10.06c.28,1.42,1.54,2.5,3.04,2.5s2.76-1.08,3.04-2.5h4.46c.33,0,.6-.27,.6-.6s-.27-.6-.6-.6h-4.46c-.28-1.42-1.54-2.5-3.04-2.5s-2.76,1.08-3.04,2.5H.6c-.33,0-.6,.27-.6,.6s.27,.6,.6,.6ZM13.1,1.2c1.05,0,1.9,.85,1.9,1.9s-.85,1.9-1.9,1.9-1.9-.85-1.9-1.9,.85-1.9,1.9-1.9Z"/><path class="cls-1" d="M20.6,10H8.64c-.28-1.42-1.54-2.5-3.04-2.5s-2.76,1.08-3.04,2.5H.6c-.33,0-.6,.27-.6,.6s.27,.6,.6,.6h1.96c.28,1.42,1.54,2.5,3.04,2.5s2.76-1.08,3.04-2.5h11.96c.33,0,.6-.27,.6-.6s-.27-.6-.6-.6Zm-15,2.5c-1.05,0-1.9-.85-1.9-1.9s.85-1.9,1.9-1.9,1.9,.85,1.9,1.9-.85,1.9-1.9,1.9Z"/><path class="cls-1" d="M20.6,17.5h-.71c-.28-1.42-1.54-2.5-3.04-2.5s-2.76,1.08-3.04,2.5H.6c-.33,0-.6,.27-.6,.6s.27,.6,.6,.6H13.81c.28,1.42,1.54,2.5,3.04,2.5s2.76-1.08,3.04-2.5h.71c.33,0,.6-.27,.6-.6s-.27-.6-.6-.6Zm-3.75,2.5c-1.05,0-1.9-.85-1.9-1.9s.85-1.9,1.9-1.9,1.9,.85,1.9,1.9-.85,1.9-1.9,1.9Z"/></svg>