<?xml version="1.0" encoding="UTF-8"?><svg id="Warstwa_1" xmlns="http://www.w3.org/2000/svg" viewBox="0 0 19.8 19.8"><defs><style>.cls-1{fill:#202945;}</style></defs><path class="cls-1" d="M19.2,18.6h-1.46V8.87c0-.2-.1-.39-.27-.5l-5.94-3.96V.6c0-.21-.11-.4-.28-.51-.18-.11-.4-.12-.58-.03L2.39,4.2c-.2,.1-.33,.31-.33,.54v13.87H.6c-.33,0-.6,.27-.6,.6s.27,.6,.6,.6H19.2c.33,0,.6-.27,.6-.6s-.27-.6-.6-.6Zm-2.66-9.41v9.41h-5.01V5.85l5.01,3.34ZM3.26,5.1L10.33,1.57V18.6H3.26V5.1Z"/><path class="cls-1" d="M6.8,6.21c-.33,0-.6,.28-.6,.61s.27,.6,.6,.6,.6-.27,.6-.6v-.02c0-.33-.27-.59-.6-.59Z"/><path class="cls-1" d="M6.8,9.31c-.33,0-.6,.27-.6,.6s.27,.6,.6,.6,.6-.27,.6-.6h0c0-.34-.27-.6-.6-.6Z"/><path class="cls-1" d="M6.8,12.41c-.33,0-.6,.27-.6,.6s.27,.6,.6,.6,.6-.27,.6-.6h0c0-.34-.27-.6-.6-.6Z"/><path class="cls-1" d="M6.8,15.5c-.33,0-.6,.27-.6,.6s.27,.6,.6,.6,.6-.27,.6-.6h0c0-.34-.27-.6-.6-.6Z"/></svg>