<?xml version="1.0" encoding="UTF-8"?><svg id="Warstwa_1" xmlns="http://www.w3.org/2000/svg" viewBox="0 0 20.18 19.95"><defs><style>.cls-1{fill:#202945;}</style></defs><path class="cls-1" d="M20.03,18.77V4.98c0-.23-.13-.44-.34-.54L10.34,.06c-.16-.08-.35-.08-.51,0L.5,4.44c-.21,.1-.35,.31-.35,.54v13.79c-.09,.12-.15,.26-.15,.43,0,.41,.34,.75,.75,.75H19.43c.41,0,.75-.34,.75-.75,0-.16-.06-.3-.15-.43Zm-1.2-4.16H1.35v-2.79H18.83v2.79Zm0-3.99H1.35v-2.79H18.83v2.79ZM1.35,15.81H18.83v2.64H1.35v-2.64ZM10.09,1.26l8.74,4.1v1.27H1.35v-1.27L10.09,1.26Z"/></svg>