<?xml version="1.0" encoding="UTF-8"?><svg id="Warstwa_1" xmlns="http://www.w3.org/2000/svg" viewBox="0 0 20 20"><defs><style>.cls-1{fill:#ff3d00;}.cls-2{fill:#4caf50;}.cls-3{fill:#ffc107;}.cls-4{fill:#1976d2;}</style></defs><path class="cls-3" d="M19.81,8.04h-.81v-.04H10v4h5.65c-.82,2.33-3.04,4-5.65,4-3.31,0-6-2.69-6-6s2.69-6,6-6c1.53,0,2.92,.58,3.98,1.52l2.83-2.83c-1.79-1.66-4.18-2.69-6.81-2.69C4.48,0,0,4.48,0,10s4.48,10,10,10,10-4.48,10-10c0-.67-.07-1.32-.19-1.96Z"/><path class="cls-1" d="M1.15,5.35l3.29,2.41c.89-2.2,3.04-3.76,5.56-3.76,1.53,0,2.92,.58,3.98,1.52l2.83-2.83c-1.79-1.66-4.18-2.69-6.81-2.69C6.16,0,2.83,2.17,1.15,5.35Z"/><path class="cls-2" d="M10,20c2.58,0,4.93-.99,6.7-2.6l-3.1-2.62c-1,.76-2.25,1.21-3.61,1.21-2.6,0-4.81-1.66-5.64-3.97l-3.26,2.51c1.66,3.24,5.02,5.46,8.9,5.46Z"/><path class="cls-4" d="M19.81,8.04h-.81v-.04H10v4h5.65c-.4,1.12-1.12,2.08-2.04,2.79h0l3.1,2.62c-.22,.2,3.3-2.4,3.3-7.4,0-.67-.07-1.32-.19-1.96Z"/></svg>