<?xml version="1.0" encoding="UTF-8"?><svg id="Warstwa_1" xmlns="http://www.w3.org/2000/svg" viewBox="0 0 19.89 19.8"><defs><style>.cls-1{fill:#202945;}</style></defs><path class="cls-1" d="M19.54,4.43L10.2,.06c-.16-.08-.35-.08-.51,0L.35,4.43c-.21,.1-.35,.31-.35,.54v14.23c0,.33,.27,.6,.6,.6s.6-.27,.6-.6V5.35L9.94,1.26l8.74,4.09v13.84c0,.33,.27,.6,.6,.6s.6-.27,.6-.6V4.97c0-.23-.13-.44-.35-.54Z"/><path class="cls-1" d="M15.12,9.85h-3.55v-.49c0-.94-.74-1.7-1.64-1.7h-2.07c-.9,0-1.64,.76-1.64,1.7v2.68h-1.47c-.33,0-.6,.27-.6,.6v6.57c0,.33,.27,.6,.6,.6h6.21s.01,0,.02,0,.01,0,.02,0h4.13c.33,0,.6-.27,.6-.6V10.45c0-.33-.27-.6-.6-.6Zm-7.7-.49c0-.27,.2-.5,.44-.5h2.07c.24,0,.44,.22,.44,.5v1.09h0v1.59h-2.96v-2.68Zm-2.07,3.88h1.45s.01,0,.02,0,.01,0,.02,0h3.54v5.37H5.35v-5.37Zm9.18,5.37h-2.95v-7.55h2.95v7.55Z"/></svg>