<?xml version="1.0" encoding="UTF-8"?><svg id="Warstwa_1" xmlns="http://www.w3.org/2000/svg" viewBox="0 0 30 30"><defs><style>.cls-1{fill:#202945;fill-rule:evenodd;}</style></defs><path class="cls-1" d="M0,15C0,6.72,6.72,0,15,0s15,6.72,15,15-6.72,15-15,15S0,23.28,0,15Zm23.16,5.64c.23-.54,.36-1.17,.41-2.08,.05-.92,.05-1.22,.05-3.56s0-2.64-.05-3.56c-.05-.91-.19-1.53-.41-2.08-.21-.58-.56-1.09-.99-1.53-.43-.43-.96-.78-1.53-.99-.54-.22-1.17-.36-2.08-.4-.92-.03-1.22-.05-3.56-.05s-2.64,0-3.56,.05c-.91,.04-1.54,.19-2.09,.4-.57,.21-1.09,.56-1.53,.99-.43,.44-.78,.96-.99,1.53-.21,.54-.36,1.17-.41,2.08-.03,.92-.04,1.22-.04,3.56s0,2.64,.04,3.56c.04,.91,.2,1.53,.41,2.08,.21,.59,.55,1.1,.99,1.53,.43,.43,.96,.78,1.53,.99,.54,.23,1.17,.36,2.09,.4h.16c.8,.03,1.2,.05,3.39,.05,2.34,0,2.64,0,3.56-.05,.91-.04,1.53-.19,2.08-.4,1.16-.45,2.07-1.36,2.52-2.52Zm-1.5-10.68c-.13-.37-.36-.71-.64-.98-.28-.28-.61-.51-.98-.64-.3-.12-.76-.25-1.59-.3h-.19c-.76-.03-1.15-.04-3.25-.04s-2.49,.01-3.25,.04h-.19c-.83,.05-1.28,.18-1.59,.3-.37,.15-.7,.36-.98,.64-.28,.28-.49,.61-.64,.98-.12,.3-.25,.76-.3,1.59v.19c-.03,.77-.04,1.15-.04,3.26s.01,2.49,.04,3.26v.19c.05,.83,.18,1.28,.3,1.59,.13,.37,.36,.71,.64,.98,.28,.28,.61,.51,.98,.64,.3,.12,.76,.25,1.59,.3,.91,.04,1.17,.04,3.45,.04,2.12,0,2.51-.01,3.28-.04h.17c.83-.05,1.28-.18,1.59-.3,.74-.28,1.34-.88,1.62-1.62,.12-.3,.25-.76,.3-1.59,.04-.91,.04-1.17,.04-3.45,0-2.11-.01-2.49-.04-3.26v-.19c-.05-.83-.18-1.28-.3-1.59Zm-6.66,9.42c-2.42,0-4.38-1.96-4.38-4.38s1.96-4.38,4.38-4.38,4.38,1.96,4.38,4.38-1.96,4.38-4.38,4.38Zm4.56-7.92c-.56,0-1.03-.46-1.03-1.03s.46-1.03,1.03-1.03,1.03,.46,1.03,1.03c-.01,.58-.46,1.03-1.03,1.03Zm-1.56,3.54c0,1.66-1.35,3-3,3s-3-1.34-3-3,1.34-3,3-3,3,1.34,3,3Z"/></svg>