<?xml version="1.0" encoding="UTF-8"?><svg id="Warstwa_1" xmlns="http://www.w3.org/2000/svg" viewBox="0 0 20.1 19.95"><defs><style>.cls-1{fill:#202945;}</style></defs><path class="cls-1" d="M19.35,18.45h-.43V8.43h.43c.33,0,.6-.27,.6-.6s-.27-.6-.6-.6H.75c-.33,0-.6,.27-.6,.6s.27,.6,.6,.6h.43v10.02h-.43c-.41,0-.75,.34-.75,.75s.34,.75,.75,.75H19.35c.41,0,.75-.34,.75-.75s-.34-.75-.75-.75ZM2.38,8.43h15.34v10.02H2.38V8.43Z"/><path class="cls-1" d="M3.05,4.25L10.05,1.25l7,3c.08,.03,.16,.05,.24,.05,.23,0,.45-.14,.55-.36,.13-.3-.01-.66-.32-.79L10.29,.05c-.15-.06-.32-.06-.47,0L2.58,3.15c-.3,.13-.45,.48-.32,.79,.13,.3,.48,.44,.79,.32Z"/><path class="cls-1" d="M5.92,11.37c-.33,0-.6,.27-.6,.6v3.11c0,.33,.27,.6,.6,.6s.6-.27,.6-.6v-3.11c0-.33-.27-.6-.6-.6Z"/><path class="cls-1" d="M10.05,11.37c-.33,0-.6,.27-.6,.6v3.11c0,.33,.27,.6,.6,.6s.6-.27,.6-.6v-3.11c0-.33-.27-.6-.6-.6Z"/><path class="cls-1" d="M14.18,11.37c-.33,0-.6,.27-.6,.6v3.11c0,.33,.27,.6,.6,.6s.6-.27,.6-.6v-3.11c0-.33-.27-.6-.6-.6Z"/></svg>