<?xml version="1.0" encoding="UTF-8"?><svg id="Warstwa_1" xmlns="http://www.w3.org/2000/svg" viewBox="0 0 16 16"><defs><style>.cls-1{fill:#202945;}</style></defs><path class="cls-1" d="M8.01,16h0c-.14,0-.28-.06-.37-.17L1.39,8.88c-.46-.5-.81-1.09-1.05-1.76C.1,6.46-.02,5.76,0,5.05c.02-.71,.16-1.4,.43-2.05,.27-.65,.65-1.22,1.14-1.7,.49-.48,1.05-.83,1.67-1.06C3.87,.03,4.52-.05,5.17,.03c.65,.08,1.27,.3,1.83,.67,.37,.24,.71,.53,1.01,.87,.3-.34,.63-.62,1.01-.86,.57-.36,1.18-.58,1.83-.66,.65-.08,1.3,0,1.92,.22,.62,.22,1.18,.58,1.66,1.06,.48,.47,.86,1.04,1.13,1.69,.27,.65,.42,1.33,.43,2.04,.02,.71-.09,1.4-.33,2.06-.24,.66-.59,1.26-1.04,1.76-.01,.01-.03,.03-.04,.04l-6.2,6.91c-.09,.11-.23,.17-.37,.17ZM4.66,1c-.37,0-.73,.06-1.09,.19-.48,.17-.92,.45-1.3,.83-.39,.38-.7,.84-.92,1.37-.22,.53-.34,1.1-.35,1.69-.01,.59,.08,1.16,.28,1.71,.19,.54,.48,1.02,.85,1.42l5.88,6.55,5.88-6.54s.03-.03,.04-.04c.35-.4,.62-.86,.8-1.38,.19-.54,.29-1.12,.27-1.7-.01-.58-.13-1.15-.36-1.68-.22-.52-.53-.98-.91-1.37-.38-.38-.82-.65-1.3-.83-.48-.17-.97-.23-1.47-.17-.5,.06-.97,.23-1.41,.51-.44,.28-.82,.66-1.13,1.12-.09,.14-.25,.22-.42,.22-.14-.01-.32-.08-.42-.22-.31-.46-.69-.84-1.13-1.13-.44-.28-.91-.45-1.41-.51-.13-.02-.26-.02-.38-.02Z"/></svg>