<?xml version="1.0" encoding="UTF-8"?><svg id="Warstwa_1" xmlns="http://www.w3.org/2000/svg" viewBox="0 0 14.57 20.42"><defs><style>.cls-1{fill:#202945;}</style></defs><path class="cls-1" d="M13.58,3.59c-.64-1.09-1.56-2-2.66-2.63-1.11-.63-2.36-.96-3.63-.96s-2.53,.33-3.63,.96C2.54,1.59,1.63,2.5,.98,3.59,.34,4.68,0,5.92,0,7.18c0,1.26,.33,2.5,.96,3.6l2.6,4.52,.42,.73,2.14,3.72c.12,.2,.29,.37,.49,.49,.2,.12,.44,.18,.67,.18s.47-.06,.67-.18c.2-.12,.37-.29,.49-.49l2.15-3.73,.42-.73,2.59-4.51c.63-1.1,.96-2.34,.96-3.6,0-1.26-.34-2.5-.98-3.59Zm-.71,6.78l-5.16,8.97c-.04,.07-.11,.14-.18,.18-.07,.04-.16,.07-.25,.07s-.17-.02-.25-.07c-.07-.04-.14-.1-.18-.18L1.7,10.36c-.57-.96-.87-2.06-.87-3.18s.3-2.21,.87-3.18h.02c.88-1.41,2.28-2.43,3.9-2.84,1.62-.41,3.34-.17,4.79,.65s2.52,2.18,2.98,3.77c.46,1.59,.27,3.3-.52,4.76Z"/><path class="cls-1" d="M9.73,4.79c-.49-.48-1.1-.81-1.78-.94-.67-.13-1.37-.06-2.01,.2s-1.18,.7-1.56,1.27-.58,1.23-.58,1.91c0,.91,.37,1.78,1.02,2.42,.65,.64,1.53,1,2.45,1,.69,0,1.36-.2,1.93-.58,.57-.38,1.02-.91,1.28-1.54,.26-.63,.33-1.32,.2-1.99-.13-.67-.47-1.28-.95-1.76Zm-.03,3.42c-.2,.47-.53,.88-.97,1.17-.43,.29-.94,.44-1.46,.44-.69,0-1.35-.27-1.84-.75-.49-.48-.77-1.13-.78-1.81v-.02c0-.51,.15-1.02,.44-1.44,.29-.43,.7-.76,1.18-.96s1.01-.25,1.52-.15,.98,.35,1.34,.71c.37,.36,.62,.83,.72,1.33,.1,.5,.05,1.03-.15,1.5Z"/></svg>