<?xml version="1.0" encoding="UTF-8"?><svg id="Warstwa_1" xmlns="http://www.w3.org/2000/svg" xmlns:xlink="http://www.w3.org/1999/xlink" viewBox="0 0 16.22 20"><defs><style>.cls-1{fill:#5f6579;}.cls-2{clip-path:url(#clippath);}.cls-3{fill:none;}</style><clipPath id="clippath"><rect class="cls-3" width="16.22" height="20"/></clipPath></defs><g class="cls-2"><g><path class="cls-1" d="M15.65,7.56h-2.26v-2.29C13.39,2.36,11.02-.01,8.11-.01S2.83,2.37,2.83,5.28v2.29H.57c-.31,0-.57,.25-.57,.57v11.31c0,.31,.25,.57,.57,.57H15.65c.31,0,.57-.25,.57-.57V8.13c0-.31-.25-.57-.57-.57ZM3.96,5.28c0-2.29,1.86-4.15,4.15-4.15s4.15,1.86,4.15,4.15v2.29H3.96v-2.29Zm11.12,13.59H1.13V8.69H15.08v10.18Z"/><path class="cls-1" d="M8.11,15.76c.31,0,.57-.25,.57-.57v-2.83c0-.31-.25-.57-.57-.57s-.57,.25-.57,.57v2.83c0,.31,.25,.57,.57,.57Z"/></g></g></svg>