<?xml version="1.0" encoding="UTF-8"?><svg id="Warstwa_1" xmlns="http://www.w3.org/2000/svg" viewBox="0 0 16 16"><defs><style>.cls-1{fill:#202945;}</style></defs><path class="cls-1" d="M8,16c-1.65,0-3.27-.51-4.62-1.47-1.35-.96-2.37-2.31-2.92-3.87C-.1,9.11-.15,7.41,.3,5.82c.45-1.59,1.39-3,2.68-4.04,.05-.04,.1-.08,.16-.1,.06-.02,.12-.03,.19-.03,.06,0,.12,.02,.18,.05,.06,.03,.11,.07,.14,.12,.04,.05,.07,.11,.08,.17,.02,.06,.02,.12,.01,.19,0,.06-.03,.12-.07,.17-.03,.05-.08,.1-.13,.13-1.14,.92-1.97,2.17-2.37,3.59-.4,1.41-.35,2.91,.13,4.3,.49,1.38,1.39,2.58,2.59,3.43,1.2,.85,2.63,1.3,4.1,1.3s2.9-.46,4.1-1.3c1.2-.85,2.1-2.05,2.59-3.43,.49-1.38,.54-2.89,.13-4.3s-1.23-2.66-2.37-3.59c-.08-.08-.13-.18-.14-.3,0-.11,.03-.22,.1-.31s.17-.15,.28-.16c.11-.02,.23,0,.32,.07,1.29,1.04,2.22,2.45,2.68,4.04,.45,1.59,.4,3.28-.15,4.85-.55,1.56-1.57,2.91-2.92,3.87-1.35,.96-2.97,1.47-4.62,1.47Z"/><path class="cls-1" d="M8,8.45c-.06,0-.12-.01-.17-.03-.05-.02-.1-.06-.15-.1-.04-.04-.08-.09-.1-.15-.02-.05-.03-.11-.03-.17V.45c0-.12,.05-.24,.13-.32,.08-.08,.2-.13,.32-.13s.24,.05,.32,.13c.08,.08,.13,.2,.13,.32v7.55c0,.06-.01,.12-.03,.17-.02,.05-.06,.1-.1,.15-.04,.04-.09,.08-.15,.1-.05,.02-.11,.03-.17,.03Z"/></svg>