<?xml version="1.0" encoding="UTF-8"?><svg id="Warstwa_1" xmlns="http://www.w3.org/2000/svg" viewBox="0 0 21.2 21.19"><defs><style>.cls-1{fill:#202945;}</style></defs><path class="cls-1" d="M20.53,2.42c-.43-.74-1.05-1.35-1.79-1.78-1.48-.85-3.38-.85-4.85,0-.74,.43-1.35,1.04-1.78,1.78-.43,.74-.66,1.58-.68,2.44-.01,.86,.2,1.7,.64,2.51l3.75,5.42c.11,.16,.3,.26,.49,.26s.38-.1,.49-.26l3.78-5.47c.41-.75,.62-1.6,.61-2.45-.01-.86-.25-1.7-.67-2.44Zm-.95,4.26l-3.26,4.71-3.22-4.65c-.31-.57-.47-1.21-.46-1.86,0-.65,.19-1.29,.51-1.85,.33-.56,.79-1.02,1.35-1.35,.56-.32,1.19-.49,1.83-.49s1.27,.17,1.83,.49c.56,.32,1.02,.79,1.35,1.35,.33,.56,.5,1.2,.51,1.85,0,.65-.15,1.29-.43,1.81Z"/><path class="cls-1" d="M19.89,14.43c-.33,0-.6,.27-.6,.6v1.86l-5.23,2.71v-4.94c0-.33-.27-.6-.6-.6s-.6,.27-.6,.6v4.94l-5.23-2.71h0V3.8l.73,.38c.29,.15,.66,.04,.81-.26,.15-.29,.04-.66-.26-.81l-1.61-.83s-.01,0-.02,0c-.08-.04-.16-.06-.26-.06h0c-.09,0-.17,.03-.25,.06,0,0-.01,0-.02,0L.32,5.61c-.2,.1-.32,.31-.32,.53v14.44c0,.21,.11,.4,.29,.51,.18,.11,.4,.12,.59,.02l6.15-3.19,6.15,3.19s.02,0,.02,0c.07,.04,.16,.06,.24,.06h.01c.09,0,.18-.02,.26-.06,0,0,.01,0,.02,0l6.43-3.33c.2-.1,.32-.31,.32-.53v-2.22c0-.33-.27-.6-.6-.6ZM1.2,6.51L6.43,3.8v13.09h0l-5.23,2.72V6.51Z"/><path class="cls-1" d="M16.2,4.59c-.33,0-.6,.27-.6,.6s.27,.6,.6,.6,.6-.27,.6-.6-.27-.6-.6-.6Z"/></svg>