<?xml version="1.0" encoding="UTF-8"?><svg id="Warstwa_1" xmlns="http://www.w3.org/2000/svg" viewBox="0 0 21.2 16.2"><defs><style>.cls-1{fill:#202945;}</style></defs><path class="cls-1" d="M20.6,1.2H.6c-.33,0-.6-.27-.6-.6S.27,0,.6,0H20.6c.33,0,.6,.27,.6,.6s-.27,.6-.6,.6Z"/><path class="cls-1" d="M20.6,8.7H.6c-.33,0-.6-.27-.6-.6s.27-.6,.6-.6H20.6c.33,0,.6,.27,.6,.6s-.27,.6-.6,.6Z"/><path class="cls-1" d="M20.6,16.2H.6c-.33,0-.6-.27-.6-.6s.27-.6,.6-.6H20.6c.33,0,.6,.27,.6,.6s-.27,.6-.6,.6Z"/></svg>