<?xml version="1.0" encoding="UTF-8"?><svg id="Warstwa_1" xmlns="http://www.w3.org/2000/svg" viewBox="0 0 15.2 11.2"><defs><style>.cls-1{fill:#202945;}</style></defs><path class="cls-1" d="M14.6,1.2H.6c-.33,0-.6-.27-.6-.6S.27,0,.6,0H14.6c.33,0,.6,.27,.6,.6s-.27,.6-.6,.6Z"/><path class="cls-1" d="M14.6,6.2H.6c-.33,0-.6-.27-.6-.6s.27-.6,.6-.6H14.6c.33,0,.6,.27,.6,.6s-.27,.6-.6,.6Z"/><path class="cls-1" d="M14.6,11.2H.6c-.33,0-.6-.27-.6-.6s.27-.6,.6-.6H14.6c.33,0,.6,.27,.6,.6s-.27,.6-.6,.6Z"/></svg>