<?xml version="1.0" encoding="UTF-8"?><svg id="Warstwa_1" xmlns="http://www.w3.org/2000/svg" viewBox="0 0 17 13.44"><defs><style>.cls-1{fill:#2c3e50;}</style></defs><path class="cls-1" d="M16.99,2.19h0c-.05-1.22-1.04-2.19-2.27-2.19H2.28C1.06,0,.06,.97,0,2.18h0s0,.07,0,.1V11.17c0,1.26,1.02,2.28,2.28,2.28H14.72c1.26,0,2.28-1.02,2.28-2.28V2.28s0-.06,0-.09ZM2.28,1H14.72c.62,0,1.12,.45,1.23,1.04l-7.45,4.97L1.05,2.04c.11-.59,.61-1.04,1.23-1.04ZM14.72,12.44H2.28c-.7,0-1.28-.57-1.28-1.28V3.21l7.22,4.82c.08,.06,.18,.08,.28,.08s.19-.03,.28-.08l7.22-4.82v7.95c0,.71-.57,1.28-1.28,1.28Z"/></svg>