<?xml version="1.0" encoding="UTF-8"?><svg id="Warstwa_1" xmlns="http://www.w3.org/2000/svg" viewBox="0 0 21.2 21.2"><defs><style>.cls-1{fill:#202945;}</style></defs><path class="cls-1" d="M18.21,21.2c-4.77-.29-9.22-2.29-12.57-5.64C2.29,12.2,.29,7.75,0,3.02,0,2.2,.31,1.46,.86,.9,1.42,.35,2.16,.04,2.95,.04H7.64c.25,0,.47,.15,.56,.38l2.35,5.87c.11,.27,0,.59-.25,.74l-2.45,1.47c1.12,2.04,2.82,3.73,4.85,4.85l1.47-2.45c.15-.25,.46-.36,.74-.25l5.87,2.35c.23,.09,.38,.31,.38,.56v4.7c0,.78-.31,1.54-.86,2.08-.56,.56-1.3,.86-2.08,.86ZM2.95,1.24c-.47,0-.91,.18-1.24,.51-.33,.33-.51,.77-.51,1.24,.27,4.4,2.15,8.58,5.29,11.72,3.14,3.14,7.32,5.02,11.75,5.29,.43,0,.87-.18,1.2-.51,.33-.33,.51-.78,.51-1.24v-4.29l-5.02-2.01-1.5,2.5c-.16,.27-.5,.37-.78,.23-2.65-1.31-4.83-3.49-6.14-6.14-.14-.28-.04-.62,.23-.78l2.5-1.5L7.24,1.24H2.95Z"/><path class="cls-1" d="M20.6,8.24c-.33,0-.6-.27-.6-.6,0-1.72-.67-3.34-1.89-4.56s-2.83-1.89-4.56-1.89c-.33,0-.6-.27-.6-.6s.27-.6,.6-.6c2.04,0,3.96,.8,5.4,2.24,1.44,1.44,2.24,3.36,2.24,5.41,0,.33-.27,.6-.6,.6Z"/></svg>