<?xml version="1.0" encoding="UTF-8"?><svg id="Warstwa_1" xmlns="http://www.w3.org/2000/svg" viewBox="0 0 30.41 21.64"><defs><style>.cls-1{fill:#202945;}</style></defs><path class="cls-1" d="M15.2,14.34c-1.94,0-3.52-1.58-3.52-3.52s1.58-3.52,3.52-3.52,3.52,1.58,3.52,3.52-1.58,3.52-3.52,3.52Zm0-5.84c-1.28,0-2.32,1.04-2.32,2.32s1.04,2.32,2.32,2.32,2.32-1.04,2.32-2.32-1.04-2.32-2.32-2.32Z"/><path class="cls-1" d="M15.2,21.64c-6.04,0-11.13-3.54-15.12-10.52-.11-.18-.11-.41,0-.6C4.07,3.54,9.16,0,15.2,0s11.13,3.54,15.12,10.52c.11,.18,.11,.41,0,.6-3.99,6.98-9.08,10.52-15.12,10.52ZM1.29,10.82c3.73,6.39,8.41,9.62,13.91,9.62s10.18-3.24,13.91-9.62C25.38,4.44,20.7,1.2,15.2,1.2S5.03,4.44,1.29,10.82Z"/></svg>