<?xml version="1.0" encoding="UTF-8"?><svg id="Warstwa_1" xmlns="http://www.w3.org/2000/svg" viewBox="0 0 19.96 12.93"><defs><style>.cls-1{fill:#202945;}</style></defs><path class="cls-1" d="M19.36,12.93c-.33,0-.6-.27-.6-.6v-3.67H1.2v3.67c0,.33-.27,.6-.6,.6s-.6-.27-.6-.6V.6C0,.27,.27,0,.6,0s.6,.27,.6,.6V7.46h7.14V1.67c0-.33,.27-.6,.6-.6h8.34c1.48,0,2.68,1.22,2.68,2.73V12.33c0,.33-.27,.6-.6,.6ZM9.54,7.46h9.22V3.8c0-.84-.66-1.53-1.48-1.53h-7.74V7.46Z"/><path class="cls-1" d="M4.77,5.47c-.91,0-1.64-.75-1.64-1.67s.74-1.67,1.64-1.67,1.64,.75,1.64,1.67-.74,1.67-1.64,1.67Zm0-2.14c-.25,0-.44,.21-.44,.47s.2,.47,.44,.47,.44-.21,.44-.47-.2-.47-.44-.47Z"/></svg>