<?xml version="1.0" encoding="UTF-8"?><svg id="Warstwa_1" xmlns="http://www.w3.org/2000/svg" viewBox="0 0 17 17"><defs><style>.cls-1{fill:#202945;}</style></defs><path class="cls-1" d="M14,11c-.91,0-1.72,.42-2.27,1.06h0l-5.93-2.97c.13-.34,.21-.7,.21-1.09,0-.06-.01-.12-.02-.18l5.74-2.87h0c.55,.64,1.36,1.05,2.27,1.05,1.65,0,3-1.35,3-3s-1.35-3-3-3-3,1.35-3,3c0,.38,.08,.75,.21,1.09l-5.46,2.73c-.46-1.07-1.52-1.81-2.75-1.81-1.65,0-3,1.35-3,3s1.35,3,3,3c.91,0,1.72-.42,2.27-1.06h0l5.93,2.97c-.13,.34-.21,.7-.21,1.09,0,1.65,1.35,3,3,3s3-1.35,3-3-1.35-3-3-3Zm0-10c1.1,0,2,.9,2,2s-.9,2-2,2-2-.9-2-2,.9-2,2-2ZM3,10c-1.1,0-2-.9-2-2s.9-2,2-2,2,.9,2,2-.9,2-2,2Zm11,6c-1.1,0-2-.9-2-2s.9-2,2-2,2,.9,2,2-.9,2-2,2Z"/></svg>