<?xml version="1.0" encoding="UTF-8"?><svg id="Warstwa_1" xmlns="http://www.w3.org/2000/svg" viewBox="0 0 21.2 15.2"><defs><style>.cls-1{fill:#202945;}</style></defs><path class="cls-1" d="M11.19,0H.6C.27,0,0,.27,0,.6s.27,.6,.6,.6H11.19c.33,0,.6-.27,.6-.6s-.27-.6-.6-.6Z"/><path class="cls-1" d="M8.84,7H.6c-.33,0-.6,.27-.6,.6s.27,.6,.6,.6H8.84c.33,0,.6-.27,.6-.6s-.27-.6-.6-.6Z"/><path class="cls-1" d="M8.84,14H.6c-.33,0-.6,.27-.6,.6s.27,.6,.6,.6H8.84c.33,0,.6-.27,.6-.6s-.27-.6-.6-.6Z"/><path class="cls-1" d="M21.03,10.68c-.23-.24-.61-.24-.85,0l-2.5,2.48V.6c0-.33-.27-.6-.6-.6s-.6,.27-.6,.6V13.16l-2.51-2.49c-.24-.23-.62-.23-.85,0-.23,.24-.23,.62,0,.85l3.53,3.5s.1,.07,.15,.1c.02,0,.03,.02,.04,.03,.07,.03,.15,.05,.23,.05h0s.03,0,.04,0c.06,0,.13-.01,.18-.04,.08-.03,.14-.08,.2-.13l3.52-3.49c.24-.23,.24-.61,0-.85Z"/></svg>