<?xml version="1.0" encoding="UTF-8"?><svg id="Warstwa_1" xmlns="http://www.w3.org/2000/svg" viewBox="0 0 20 20"><defs><style>.cls-1{fill:#f76e44;fill-rule:evenodd;}</style></defs><path class="cls-1" d="M0,10C0,4.49,4.49,0,10,0s10,4.49,10,10-4.49,10-10,10S0,15.51,0,10Zm1.13,0c0,4.89,3.98,8.87,8.87,8.87s8.87-3.98,8.87-8.87S14.89,1.13,10,1.13,1.13,5.11,1.13,10ZM10.45,3.77c-.09-.17-.26-.27-.45-.27s-.36,.11-.45,.27l-1.74,3.39-3.89,.54c-.19,.03-.35,.16-.41,.34-.06,.18,0,.38,.13,.52l2.81,2.63-.66,3.71c-.03,.19,.04,.38,.19,.49,.15,.11,.36,.13,.52,.04l3.48-1.76,3.47,1.76c.17,.09,.37,.07,.52-.04,.15-.11,.23-.3,.19-.49l-.66-3.71,2.81-2.63c.14-.13,.19-.33,.13-.52-.06-.18-.22-.32-.41-.34l-3.89-.54-1.74-3.39Zm-1.85,4.08l1.41-2.75,1.41,2.75c.07,.15,.21,.24,.38,.27l3.11,.43-2.24,2.1c-.12,.12-.18,.29-.15,.45l.53,2.99-2.81-1.43c-.14-.07-.31-.07-.45,0l-2.81,1.43,.53-2.99c.03-.17-.03-.34-.15-.45l-2.24-2.1,3.11-.43c.16-.02,.3-.12,.38-.27Z"/></svg>