<?xml version="1.0" encoding="UTF-8"?><svg id="Warstwa_1" xmlns="http://www.w3.org/2000/svg" viewBox="0 0 20 20"><defs><style>.cls-1{fill:#37bf66;fill-rule:evenodd;}</style></defs><path class="cls-1" d="M4.44,1.69c1.64-1.1,3.58-1.69,5.56-1.69,2.65,0,5.19,1.06,7.07,2.93,1.87,1.87,2.93,4.42,2.93,7.07,0,1.98-.59,3.91-1.69,5.56-1.1,1.64-2.66,2.93-4.49,3.68-1.83,.76-3.84,.95-5.78,.57-1.94-.39-3.72-1.34-5.12-2.74C1.53,15.67,.58,13.89,.19,11.95-.19,10.01,0,8,.76,6.17c.76-1.83,2.04-3.39,3.68-4.49Zm.63,15.69c1.46,.97,3.17,1.49,4.93,1.49,2.35,0,4.61-.94,6.27-2.6,1.66-1.66,2.6-3.92,2.6-6.27,0-1.75-.52-3.47-1.49-4.93-.97-1.46-2.36-2.59-3.98-3.27-1.62-.67-3.4-.85-5.12-.5-1.72,.34-3.3,1.19-4.54,2.43-1.24,1.24-2.08,2.82-2.43,4.54-.34,1.72-.17,3.5,.5,5.12,.67,1.62,1.81,3.01,3.27,3.98Zm4.1-5.84l4.21-4.2c.05-.05,.12-.09,.18-.12,.07-.03,.14-.04,.22-.04s.15,.01,.22,.04c.07,.03,.13,.07,.18,.12,.1,.11,.16,.25,.16,.4s-.06,.29-.16,.4l-4.6,4.6c-.11,.1-.25,.16-.4,.16s-.29-.06-.4-.16l-2.95-2.95c-.11-.11-.17-.25-.17-.4s.06-.29,.17-.4c.11-.11,.25-.17,.4-.17s.29,.06,.4,.17l2.55,2.55Z"/></svg>