<?xml version="1.0" encoding="UTF-8"?><svg id="Warstwa_1" xmlns="http://www.w3.org/2000/svg" viewBox="0 0 20 20"><defs><style>.cls-1{fill:#f76e44;fill-rule:evenodd;}</style></defs><path class="cls-1" d="M10,0C4.49,0,0,4.49,0,10s4.49,10,10,10,10-4.49,10-10S15.51,0,10,0Zm0,18.87c-4.89,0-8.87-3.98-8.87-8.87S5.11,1.13,10,1.13s8.87,3.98,8.87,8.87-3.98,8.87-8.87,8.87Zm0-8.37c-.65,0-1.28,.28-1.75,.81-.48,.53-.75,1.26-.75,2.02v1.11s0,.05,.02,.06h4.97s.02-.03,.02-.06v-1.11c0-.77-.27-1.49-.75-2.02-.47-.53-1.1-.81-1.75-.81Zm1.73-.5c.28-.17,.54-.39,.76-.64,.65-.72,1.01-1.69,1.01-2.69v-1.11c0-.26-.09-.53-.27-.73-.18-.2-.44-.33-.73-.33H7.5c-.28,0-.54,.13-.73,.33-.18,.2-.27,.46-.27,.73v1.11c0,1,.36,1.97,1.01,2.69,.23,.25,.48,.47,.76,.64-.28,.17-.54,.39-.76,.64-.65,.72-1.01,1.69-1.01,2.69v1.11c0,.26,.09,.53,.27,.73,.18,.2,.44,.33,.73,.33h5c.28,0,.54-.13,.73-.33,.18-.2,.27-.46,.27-.73v-1.11c0-1-.36-1.97-1.01-2.69-.23-.25-.48-.47-.76-.64Zm-1.73-.5c-.65,0-1.28-.28-1.75-.81-.48-.53-.75-1.26-.75-2.02v-1.11s0-.05,.02-.06h4.97s.02,.03,.02,.06v1.11c0,.77-.27,1.49-.75,2.02-.47,.53-1.1,.81-1.75,.81Z"/></svg>