<?xml version="1.0" encoding="UTF-8"?><svg id="Warstwa_1" xmlns="http://www.w3.org/2000/svg" viewBox="0 0 20 20"><defs><style>.cls-1{fill:#eb1649;fill-rule:evenodd;}</style></defs><path class="cls-1" d="M1,10C1,5.03,5.03,1,10,1c2.31,0,4.41,.87,6,2.3L3.3,16c-1.43-1.59-2.3-3.7-2.3-6Zm1.96,7.1c1.81,1.79,4.29,2.9,7.04,2.9,5.52,0,10-4.48,10-10S15.52,0,10,0,0,4.48,0,10c0,2.75,1.11,5.24,2.91,7.05l.03,.03,.03,.03Zm1.04-.39L16.71,4c1.42,1.59,2.29,3.69,2.29,6,0,4.97-4.03,9-9,9-2.3,0-4.4-.87-6-2.29Z"/></svg>