<?xml version="1.0" encoding="UTF-8"?><svg id="Warstwa_1" xmlns="http://www.w3.org/2000/svg" viewBox="0 0 21.2 21.2"><defs><style>.cls-1{fill:#202945;}</style></defs><path class="cls-1" d="M10.6,21.2C4.76,21.2,0,16.45,0,10.6S4.76,0,10.6,0s10.6,4.76,10.6,10.6-4.75,10.6-10.6,10.6ZM10.6,1.2C5.42,1.2,1.2,5.42,1.2,10.6s4.22,9.4,9.4,9.4,9.4-4.22,9.4-9.4S15.78,1.2,10.6,1.2Z"/><path class="cls-1" d="M9.49,13.42h0c-.16,0-.31-.06-.42-.18l-2.22-2.22c-.23-.23-.23-.61,0-.85,.23-.23,.61-.23,.85,0l1.8,1.8,4.02-4.02c.23-.23,.61-.23,.85,0s.23,.61,0,.85l-4.44,4.44c-.11,.11-.27,.18-.42,.18Z"/></svg>