<?xml version="1.0" encoding="UTF-8"?><svg id="Warstwa_1" xmlns="http://www.w3.org/2000/svg" viewBox="0 0 16 16"><defs><style>.cls-1{fill:#202945;}</style></defs><path class="cls-1" d="M10.16,7.86c.8-.47,1.41-1.19,1.76-2.05,.35-.86,.4-1.81,.15-2.7-.25-.89-.78-1.68-1.51-2.24-.74-.56-1.64-.86-2.56-.86s-1.83,.3-2.56,.86c-.74,.56-1.27,1.35-1.51,2.24-.25,.89-.19,1.84,.15,2.7,.35,.86,.96,1.58,1.76,2.05-1.68,.47-3.15,1.48-4.21,2.87C.57,12.11,0,13.81,0,15.55c0,.12,.05,.24,.13,.32,.08,.08,.2,.13,.32,.13s.24-.05,.32-.13c.08-.08,.13-.2,.13-.32,0-1.88,.75-3.69,2.08-5.02,1.33-1.33,3.13-2.08,5.02-2.08s3.69,.75,5.02,2.08c1.33,1.33,2.08,3.13,2.08,5.02,0,.06,.01,.12,.03,.17,.02,.05,.06,.1,.1,.15s.09,.08,.15,.1c.05,.02,.11,.03,.17,.03s.12-.01,.17-.03c.05-.02,.1-.06,.15-.1,.04-.04,.08-.09,.1-.15,.02-.05,.03-.11,.03-.17,0-1.74-.57-3.44-1.63-4.83-1.05-1.39-2.53-2.39-4.21-2.86h0Zm-5.48-3.63c0-.66,.2-1.3,.56-1.84,.37-.55,.88-.97,1.49-1.22,.61-.25,1.27-.31,1.92-.19,.64,.13,1.23,.45,1.7,.91,.46,.46,.78,1.06,.91,1.7,.13,.64,.06,1.31-.19,1.92-.25,.61-.68,1.12-1.22,1.49-.55,.36-1.19,.56-1.84,.56-.88,0-1.73-.35-2.35-.98-.62-.62-.97-1.47-.97-2.35Z"/></svg>