<?xml version="1.0" encoding="UTF-8"?><svg id="Warstwa_1" xmlns="http://www.w3.org/2000/svg" viewBox="0 0 15 15"><defs><style>.cls-1{fill:#202945;}</style></defs><path class="cls-1" d="M15,7.5C15,3.65,12.08,.47,8.33,.05c-.1-.04-.21-.05-.32-.02-.17-.01-.34-.03-.51-.03s-.34,.01-.51,.03c-.11-.03-.22-.02-.32,.02C2.92,.46,0,3.65,0,7.5s2.94,7.06,6.71,7.46c.05,.02,.1,.04,.16,.04,.04,0,.07-.02,.11-.03,.17,.01,.35,.03,.53,.03s.35-.01,.53-.03c.04,0,.07,.03,.11,.03,.06,0,.11-.03,.16-.04,3.76-.4,6.71-3.59,6.71-7.46ZM1,7.5c0-.64,.1-1.25,.27-1.84h3.51c-.07,.61-.11,1.22-.11,1.84s.04,1.23,.11,1.84H1.27c-.17-.58-.27-1.2-.27-1.84Zm4.67,0c0-.62,.04-1.23,.11-1.84h3.44c.07,.61,.11,1.22,.11,1.84s-.04,1.23-.11,1.84h-3.44c-.07-.61-.11-1.22-.11-1.84Zm4.56-1.84h3.5c.17,.58,.27,1.2,.27,1.84s-.1,1.25-.27,1.84h-3.5c.07-.61,.11-1.22,.11-1.84s-.04-1.23-.11-1.84Zm3.11-1h-3.26c-.22-1.21-.57-2.38-1.06-3.48,1.9,.46,3.48,1.75,4.32,3.48ZM7.82,1.02c.57,1.14,.97,2.37,1.22,3.65h-3.08c.25-1.28,.65-2.51,1.22-3.65,.11,0,.21-.02,.32-.02s.21,.01,.32,.02Zm-1.84,.17c-.49,1.1-.84,2.27-1.06,3.48H1.66c.84-1.72,2.42-3.02,4.32-3.48ZM1.66,10.34h3.26c.22,1.21,.57,2.38,1.06,3.48-1.9-.46-3.48-1.75-4.32-3.48Zm5.52,3.65c-.57-1.14-.97-2.37-1.22-3.65h3.08c-.25,1.28-.65,2.51-1.22,3.65-.11,0-.21,.02-.32,.02s-.21-.01-.32-.02Zm1.84-.17c.49-1.1,.84-2.27,1.06-3.48h3.26c-.84,1.72-2.42,3.02-4.32,3.48Z"/></svg>