<?xml version="1.0" encoding="UTF-8"?><svg id="Warstwa_1" xmlns="http://www.w3.org/2000/svg" viewBox="0 0 30 30"><defs><style>.cls-1{fill:#202945;}</style></defs><path class="cls-1" d="M15,0C6.72,0,0,6.72,0,15s6.72,15,15,15,15-6.72,15-15S23.28,0,15,0Zm8.03,17.14c0,1.99-1.61,3.6-3.6,3.6H10.22c-1.99,0-3.6-1.61-3.6-3.6v-4.29c0-1.99,1.61-3.6,3.6-3.6h9.21c1.99,0,3.6,1.61,3.6,3.6v4.29Z"/><path class="cls-1" d="M17.44,14.9l-3.95-2.15c-.17-.09-.72,.03-.72,.21v4.2c0,.18,.55,.3,.71,.21l4.13-2.04c.17-.09,0-.33-.17-.42Z"/></svg>