<?xml version="1.0" encoding="UTF-8"?><svg id="Warstwa_1" xmlns="http://www.w3.org/2000/svg" viewBox="0 0 21.2 16.76"><defs><style>.cls-1{fill:#202945;}</style></defs><path class="cls-1" d="M20.37,.83c-.52-.53-1.25-.83-2-.83H2.82c-.74,0-1.47,.3-2,.83-.53,.53-.83,1.24-.83,2V13.94c0,.75,.29,1.46,.83,2,.52,.53,1.25,.83,2,.83h6.67c.33,0,.6-.27,.6-.6s-.27-.6-.6-.6H2.82c-.43,0-.85-.17-1.15-.48-.31-.31-.47-.71-.47-1.15V2.82c0-.43,.17-.84,.48-1.15s.72-.48,1.15-.48h15.56c.43,0,.85,.17,1.15,.48,.31,.31,.48,.71,.48,1.15V7.27c0,.33,.27,.6,.6,.6s.6-.27,.6-.6V2.82c0-.75-.29-1.46-.83-2Z"/><path class="cls-1" d="M19.49,10h-5.56c-.94,0-1.71,.77-1.71,1.71v3.33c0,.94,.77,1.71,1.71,1.71h5.56c.94,0,1.71-.77,1.71-1.71v-3.33c0-.94-.77-1.71-1.71-1.71Zm.51,5.04c0,.28-.23,.51-.51,.51h-5.56c-.28,0-.51-.23-.51-.51v-3.33c0-.28,.23-.51,.51-.51h5.56c.28,0,.51,.23,.51,.51v3.33Z"/><path class="cls-1" d="M8.98,5.05c0-.33-.27-.6-.6-.6h-3.33s-.03,0-.04,0c-.06,0-.13,.01-.19,.04-.15,.06-.26,.18-.33,.32-.03,.07-.05,.15-.05,.23v3.33c0,.33,.27,.6,.6,.6s.6-.27,.6-.6v-1.89l3.42,3.42c.12,.12,.27,.18,.42,.18s.31-.06,.42-.17c.23-.23,.23-.61,0-.85l-3.42-3.42h1.89c.33,0,.6-.27,.6-.6Z"/></svg>