<?xml version="1.0" encoding="UTF-8"?><svg id="Warstwa_1" xmlns="http://www.w3.org/2000/svg" viewBox="0 0 21.2 16.76"><defs><style>.cls-1{fill:#202945;}</style></defs><path class="cls-1" d="M20.37,.83C19.85,.3,19.12,0,18.38,0h-6.67c-.33,0-.6,.27-.6,.6s.27,.6,.6,.6h6.67c.43,0,.85,.17,1.15,.48,.31,.31,.48,.71,.48,1.15V13.94c0,.43-.17,.84-.48,1.15-.3,.3-.72,.48-1.15,.48H2.82c-.43,0-.85-.17-1.15-.48s-.48-.71-.48-1.15v-4.45c0-.33-.27-.6-.6-.6S0,9.16,0,9.49v4.45C0,14.69,.29,15.4,.83,15.93c.52,.53,1.25,.83,2,.83h15.56c.74,0,1.47-.3,2-.83,.53-.53,.83-1.24,.83-2V2.82c0-.75-.29-1.46-.83-2Z"/><path class="cls-1" d="M1.71,6.76H7.27c.94,0,1.71-.77,1.71-1.71V1.71c0-.94-.77-1.71-1.71-1.71H1.71C.77,0,0,.77,0,1.71v3.33c0,.94,.77,1.71,1.71,1.71ZM1.2,1.71c0-.28,.23-.51,.51-.51H7.27c.28,0,.51,.23,.51,.51v3.33c0,.28-.23,.51-.51,.51H1.71c-.28,0-.51-.23-.51-.51V1.71Z"/><path class="cls-1" d="M16.16,7.78c-.33,0-.6,.27-.6,.6v1.89l-3.42-3.42c-.23-.23-.61-.23-.85,0s-.23,.61,0,.85l3.42,3.42h-1.89c-.33,0-.6,.27-.6,.6s.27,.6,.6,.6h3.33c.08,0,.16-.02,.23-.05,.05-.02,.1-.06,.14-.09,.02-.01,.04-.02,.05-.04,.01-.01,.02-.03,.03-.04,.04-.05,.08-.09,.1-.15,.03-.07,.05-.15,.05-.23v-3.33c0-.33-.27-.6-.6-.6Z"/></svg>